<svg xmlns="http://www.w3.org/2000/svg" width="960" height="240" viewBox="0 0 960 240" role="img" aria-label="Vault 2.0 logo">
  <defs>
    <linearGradient id="g" x1="0" x2="1" y1="0" y2="1">
      <stop offset="0%" stop-color="#7C3AED"/>
      <stop offset="50%" stop-color="#A78BFA"/>
      <stop offset="100%" stop-color="#22D3EE"/>
    </linearGradient>
    <filter id="shadow" x="-20%" y="-20%" width="140%" height="140%">
      <feDropShadow dx="0" dy="8" stdDeviation="12" flood-color="#000" flood-opacity="0.25"/>
    </filter>
    <!-- Gradientes para el cofre -->
    <linearGradient id="woodTop" x1="0" x2="0" y1="0" y2="1">
      <stop offset="0%" stop-color="#b06e2e"/>
      <stop offset="100%" stop-color="#8b4e1f"/>
    </linearGradient>
    <linearGradient id="woodBase" x1="0" x2="0" y1="0" y2="1">
      <stop offset="0%" stop-color="#a1622d"/>
      <stop offset="100%" stop-color="#6f3d1a"/>
    </linearGradient>
    <linearGradient id="metal" x1="0" x2="0" y1="0" y2="1">
      <stop offset="0%" stop-color="#f2d16b"/>
      <stop offset="50%" stop-color="#d4af37"/>
      <stop offset="100%" stop-color="#b38f2f"/>
    </linearGradient>
    <!-- Gradiente lateral para monedas de oro -->
    <linearGradient id="coinSide" x1="0" x2="1" y1="0" y2="0">
      <stop offset="0%" stop-color="#fff3a3"/>
      <stop offset="50%" stop-color="#ffd24d"/>
      <stop offset="100%" stop-color="#caa132"/>
    </linearGradient>
    <!-- Gradientes adicionales para volumen real -->
    <radialGradient id="coinTop" cx="35%" cy="30%" r="85%">
      <stop offset="0%" stop-color="#fff6b7"/>
      <stop offset="55%" stop-color="#ffd24d"/>
      <stop offset="100%" stop-color="#b38f2f"/>
    </radialGradient>
    <linearGradient id="coinEdge" x1="0" x2="0" y1="0" y2="1">
      <stop offset="0%" stop-color="#ffe47a"/>
      <stop offset="35%" stop-color="#e0b84a"/>
      <stop offset="100%" stop-color="#8b6f1a"/>
    </linearGradient>
  </defs>

  <rect x="40" y="40" width="880" height="160" rx="24" fill="url(#g)" filter="url(#shadow)"/>

  <!-- Cofre estilizado al lado del nombre -->
  <g transform="translate(90,68)" filter="url(#shadow)">
    <!-- tapa -->
    <rect x="0" y="0" width="76" height="34" rx="4" fill="url(#woodTop)" stroke="#3b2c20" stroke-width="2"/>
    <!-- base -->
    <rect x="0" y="32" width="76" height="44" rx="4" fill="url(#woodBase)" stroke="#3b2c20" stroke-width="2"/>
    <!-- bisagra/metálico central -->
    <rect x="28" y="24" width="20" height="18" rx="2" fill="url(#metal)" stroke="#7a6115" stroke-width="1.5"/>
    <rect x="34" y="28" width="8" height="6" rx="1" fill="#333333"/>
    <!-- listones para textura -->
    <rect x="19" y="6" width="2" height="20" fill="#6f3d1a" opacity="0.35"/>
    <rect x="38" y="6" width="2" height="20" fill="#6f3d1a" opacity="0.35"/>
    <rect x="57" y="6" width="2" height="20" fill="#6f3d1a" opacity="0.35"/>
    <rect x="19" y="40" width="2" height="28" fill="#4b2a12" opacity="0.35"/>
    <rect x="38" y="40" width="2" height="28" fill="#4b2a12" opacity="0.35"/>
    <rect x="57" y="40" width="2" height="28" fill="#4b2a12" opacity="0.35"/>
  </g>

  <g fill="#ffffff">
    <text x="190" y="118" font-family="'Segoe UI', Roboto, 'Helvetica Neue', Arial, 'Noto Sans', sans-serif" font-weight="700" font-size="64" letter-spacing="1.5">VAULT</text>
    <text x="190" y="168" font-family="'Segoe UI', Roboto, 'Helvetica Neue', Arial, 'Noto Sans', sans-serif" font-weight="500" font-size="36" opacity="0.9">Internal Economy · Plugins</text>
    <text x="720" y="118" font-family="'Segoe UI', Roboto, 'Helvetica Neue', Arial, 'Noto Sans', sans-serif" font-weight="700" font-size="64" text-anchor="end">2.0</text>
    <!-- Monedas apiladas entre VAULT y 2.0 (vista lateral, con espesor real) -->
    <g transform="translate(520,56)" filter="url(#shadow)">
      <!-- moneda 1 (abajo) -->
      <rect x="6" y="72" width="44" height="10" rx="22" ry="9.5" fill="url(#coinEdge)" stroke="#8a6d1a" stroke-width="1.6"/>
      <ellipse cx="28" cy="72" rx="22" ry="9.5" fill="url(#coinTop)" stroke="#7a6115" stroke-width="2.6"/>
      <!-- moneda 2 -->
      <rect x="6" y="60" width="44" height="10" rx="22" ry="9.5" fill="url(#coinEdge)" stroke="#8a6d1a" stroke-width="1.6"/>
      <ellipse cx="28" cy="60" rx="22" ry="9.5" fill="url(#coinTop)" stroke="#7a6115" stroke-width="2.6"/>
      <!-- moneda 3 -->
      <rect x="6" y="48" width="44" height="10" rx="22" ry="9.5" fill="url(#coinEdge)" stroke="#8a6d1a" stroke-width="1.6"/>
      <ellipse cx="28" cy="48" rx="22" ry="9.5" fill="url(#coinTop)" stroke="#7a6115" stroke-width="2.6"/>
      <!-- moneda 4 -->
      <rect x="6" y="36" width="44" height="10" rx="22" ry="9.5" fill="url(#coinEdge)" stroke="#8a6d1a" stroke-width="1.6"/>
      <ellipse cx="28" cy="36" rx="22" ry="9.5" fill="url(#coinTop)" stroke="#7a6115" stroke-width="2.6"/>
      <!-- moneda 5 (arriba) -->
      <rect x="6" y="24" width="44" height="10" rx="22" ry="9.5" fill="url(#coinEdge)" stroke="#8a6d1a" stroke-width="1.6"/>
      <ellipse cx="28" cy="24" rx="22" ry="9.5" fill="url(#coinTop)" stroke="#7a6115" stroke-width="2.6"/>
      <!-- brillo sutil vertical para dar volumen -->
      <rect x="38" y="20" width="6" height="56" fill="#fff" opacity="0.15"/>
    </g>
    <!-- brillo lateral -->
    <ellipse cx="40" cy="30" rx="6" ry="3" fill="#fff" opacity="0.30"/>
  </g>
</svg>